<?xml version="1.0" standalone="no"?>
<!DOCTYPE svg PUBLIC "-//W3C//DTD SVG 20010904//EN"
 "http://www.w3.org/TR/2001/REC-SVG-20010904/DTD/svg10.dtd">
<svg version="1.0" xmlns="http://www.w3.org/2000/svg"
 width="225.000000pt" height="225.000000pt" viewBox="0 0 225.000000 225.000000"
 preserveAspectRatio="xMidYMid meet">
<metadata>
Created by potrace 1.14, written by Peter Selinger 2001-2017
</metadata>
<g transform="translate(0.000000,225.000000) scale(0.100000,-0.100000)"
fill="#000000" stroke="none">
<path d="M0 1125 l0 -1125 1125 0 1125 0 0 1125 0 1125 -1125 0 -1125 0 0
-1125z m1104 440 c3 -8 1 -15 -4 -15 -6 0 -10 7 -10 15 0 8 2 15 4 15 2 0 6
-7 10 -15z m36 -35 c-6 -11 -20 -20 -31 -20 -28 0 -19 23 12 31 13 4 25 7 27
8 1 1 -2 -8 -8 -19z m-87 -43 c-4 -7 0 -6 10 2 14 11 20 11 32 1 9 -7 18 -10
22 -7 3 4 12 2 19 -4 10 -8 18 -6 31 7 17 16 18 16 21 1 4 -22 19 -22 25 1 4
13 5 13 6 -4 1 -24 31 -56 31 -34 0 9 4 9 13 2 8 -7 18 -7 27 -2 22 14 34 12
21 -3 -6 -8 -8 -17 -4 -21 4 -4 1 -11 -6 -15 -10 -6 -11 -14 -3 -26 9 -17 10
-17 16 3 6 17 15 21 42 20 27 -1 34 -5 34 -22 0 -17 2 -18 10 -6 9 13 11 13
20 0 8 -13 10 -12 11 5 1 11 1 23 1 26 -1 3 4 6 11 7 7 0 20 2 31 4 12 2 21
-5 27 -20 6 -15 5 -21 -1 -17 -6 3 -10 13 -10 21 0 9 -6 14 -12 12 -7 -3 -13
-10 -13 -16 0 -5 -4 -14 -9 -19 -5 -5 -6 -3 -2 5 4 6 3 12 -2 12 -6 0 -9 -11
-8 -25 1 -23 16 -37 16 -15 0 6 4 10 9 10 13 0 7 -28 -10 -48 -18 -22 -23 -52
-9 -52 5 0 10 5 10 11 0 8 5 8 15 -1 18 -15 20 1 3 19 -7 8 -1 6 15 -4 21 -14
27 -14 28 -4 0 8 1 30 2 49 1 22 7 34 15 32 6 -1 12 5 12 14 0 8 4 13 9 10 5
-4 14 6 20 21 10 27 10 27 6 -7 -2 -19 1 -37 6 -41 7 -4 5 -12 -5 -22 -9 -8
-16 -25 -16 -36 0 -11 -9 -22 -20 -26 -11 -3 -20 -15 -20 -25 0 -52 -33 -69
-45 -23 -5 20 -9 23 -15 13 -5 -8 -3 -19 5 -27 8 -7 12 -20 9 -27 -8 -21 29
-31 41 -11 28 47 33 51 28 20 l-5 -30 26 30 c27 32 34 28 15 -7 -9 -18 -9 -20
4 -15 9 3 18 -1 21 -8 6 -17 -26 -37 -46 -30 -11 4 -14 -4 -14 -37 1 -31 -3
-43 -14 -44 -8 -1 -21 -2 -27 -3 -7 0 -13 -6 -13 -12 0 -6 7 -9 15 -5 13 4 13
2 5 -14 -8 -14 -5 -27 12 -56 20 -34 20 -38 6 -48 -15 -9 -15 -12 0 -33 11
-18 17 -21 23 -11 4 7 11 10 14 7 3 -4 -1 -11 -9 -18 -11 -9 -17 -8 -29 4 -19
18 -34 20 -19 2 7 -8 8 -18 1 -27 -8 -13 -12 -12 -24 4 -8 11 -18 16 -22 13
-3 -4 2 -13 11 -20 16 -12 16 -15 4 -28 -21 -21 -28 -47 -15 -53 7 -4 -1 -4
-18 -1 -16 3 -25 2 -19 -2 6 -4 10 -18 9 -30 -1 -13 2 -23 6 -23 4 0 3 -14 -3
-31 -6 -16 -13 -28 -16 -25 -3 3 -11 -2 -18 -12 -7 -9 -16 -14 -20 -9 -4 4 -2
13 4 19 14 14 16 42 2 33 -6 -3 -7 1 -4 9 3 9 2 16 -4 16 -5 0 -13 -7 -16 -16
-3 -8 -10 -13 -15 -9 -15 9 -24 -16 -11 -28 10 -10 11 -8 6 8 -6 17 -5 18 6 7
11 -11 9 -17 -11 -33 -19 -16 -26 -17 -32 -7 -6 9 -9 7 -10 -7 0 -16 -3 -14
-13 9 l-13 29 -7 -26 c-4 -17 -11 -24 -20 -21 -7 3 -16 -2 -20 -11 -3 -9 -10
-14 -15 -10 -5 3 -12 1 -15 -4 -3 -5 -15 -7 -26 -4 -12 3 -20 0 -20 -6 0 -7 4
-10 9 -6 5 3 12 1 15 -4 3 -5 -5 -12 -19 -15 -27 -7 -30 -17 -15 -47 6 -11 7
-19 2 -19 -6 0 -12 10 -15 22 -4 12 -9 19 -13 15 -4 -3 -15 -2 -26 4 -18 10
-19 8 -13 -13 6 -23 6 -23 -10 -3 -9 11 -21 19 -26 18 -5 -2 -9 2 -9 8 0 6 -8
3 -17 -7 -11 -11 -18 -13 -21 -5 -2 6 -10 11 -18 11 -8 0 -14 5 -14 11 0 6 7
8 16 5 9 -3 12 -2 9 4 -4 6 -12 10 -18 9 -7 -1 -21 -1 -32 1 l-20 1 20 9 c14
6 15 9 4 9 -8 1 -20 -4 -27 -11 -9 -9 -12 -8 -12 6 0 12 -5 16 -14 13 -8 -3
-17 0 -20 8 -2 7 -21 19 -40 26 -20 7 -36 17 -36 21 0 5 -11 6 -25 2 -26 -6
-30 0 -25 39 1 10 -7 28 -17 40 -10 11 -13 18 -7 14 6 -3 16 5 22 18 7 15 8
25 2 25 -6 0 -10 -7 -10 -15 0 -8 -4 -15 -10 -15 -5 0 -7 6 -4 13 2 7 -9 23
-26 35 -29 22 -30 22 -30 3 0 -14 -5 -18 -20 -14 -16 4 -18 8 -9 19 14 17 6
109 -11 129 -5 7 -17 34 -25 61 -16 54 -8 108 27 176 19 36 61 71 85 71 7 0
13 4 13 8 0 3 9 9 20 12 13 3 20 0 20 -9 0 -8 -6 -14 -12 -15 -10 0 -10 -2 -1
-6 10 -3 10 -10 2 -25 -10 -18 -9 -20 7 -14 16 6 17 5 6 -6 -7 -7 -18 -13 -25
-13 -8 0 -11 -13 -9 -35 3 -38 21 -64 29 -42 4 10 8 10 18 2 11 -9 14 -7 12 9
-1 12 -5 22 -9 22 -4 1 -13 2 -20 3 -6 0 -13 6 -15 13 -3 7 4 10 19 6 18 -4
20 -3 8 6 -13 9 -13 11 3 11 9 0 17 -7 17 -17 0 -9 3 -14 6 -11 3 4 -1 26 -9
50 -9 23 -11 45 -6 46 5 2 9 15 9 29 0 18 4 24 15 19 8 -3 15 -1 15 5 0 6 7 9
15 5 10 -3 15 1 15 11 0 16 14 10 16 -8 1 -5 2 -13 3 -17 0 -5 9 -8 19 -7 28
3 52 16 47 25 -3 5 1 12 9 17 12 7 11 12 -5 31 -10 13 -22 21 -26 19 -5 -3
-14 6 -20 20 -11 22 -10 24 5 18 37 -14 72 -17 72 -6 0 6 -5 11 -11 11 -5 0
-7 5 -4 10 4 6 11 8 16 5 5 -4 9 -2 9 3 0 5 11 7 24 5 13 -3 27 1 31 8 5 7 4
10 -3 5 -16 -9 -21 6 -11 32 5 13 13 20 19 17 6 -4 7 -12 3 -18z m197 2 c0 -5
5 -7 10 -4 6 3 10 2 10 -3 0 -8 -22 -22 -35 -22 -2 0 -3 9 -2 20 1 20 17 29
17 9z m290 -44 c-7 -8 -17 -12 -22 -9 -6 4 -5 10 3 15 22 14 33 10 19 -6z
m-720 -5 c0 -5 -2 -10 -4 -10 -3 0 -8 5 -11 10 -3 6 -1 10 4 10 6 0 11 -4 11
-10z m128 -19 c3 -10 0 -10 -16 -2 -30 16 -38 33 -11 22 13 -4 25 -14 27 -20z
m-131 -36 c-2 -29 -6 -35 -24 -35 -13 0 -23 -3 -23 -7 0 -5 -11 -13 -25 -20
-14 -6 -25 -8 -25 -3 0 4 7 11 16 14 8 3 12 10 9 16 -4 6 1 7 11 3 11 -4 15
-2 11 4 -4 6 2 18 13 28 11 10 17 22 14 26 -3 5 2 9 10 9 10 0 14 -10 13 -35z
m-108 -88 c-2 -1 -13 -9 -24 -17 -19 -14 -19 -14 -6 3 7 9 18 17 24 17 6 0 8
-1 6 -3z m-39 -41 c0 -2 -8 -10 -17 -17 -16 -13 -17 -12 -4 4 13 16 21 21 21
13z m1000 -141 c8 -11 11 -17 6 -13 -5 4 -17 3 -27 -3 -13 -6 -19 -6 -19 1 0
5 7 10 15 10 9 0 12 6 8 18 -7 19 -4 17 17 -13z m9 -84 c1 -25 -37 -96 -47
-87 -2 3 1 12 8 21 7 8 9 15 5 15 -4 0 -2 6 4 14 18 21 21 54 6 60 -7 2 -16
-2 -19 -10 -3 -8 -11 -14 -17 -14 -8 0 -6 7 4 18 10 10 14 23 10 27 -5 5 0 3
10 -4 15 -12 17 -11 18 5 0 18 1 18 9 -1 5 -11 9 -31 9 -44z m-132 -6 c-4 -8
-12 -15 -19 -14 -10 0 -10 2 0 6 6 2 12 12 12 21 0 8 3 13 6 9 4 -3 4 -13 1
-22z m60 -30 c-7 -14 -17 -25 -24 -25 -6 0 -13 -3 -16 -7 -2 -5 -2 -3 -1 4 4
16 -13 26 -19 13 -3 -6 -4 -5 -3 1 1 7 13 13 26 14 13 1 26 7 28 13 2 7 7 12
12 12 4 0 3 -11 -3 -25z m-3 -90 c3 -8 1 -15 -4 -15 -6 0 -10 7 -10 15 0 8 2
15 4 15 2 0 6 -7 10 -15z m-964 -157 c0 -4 -4 -8 -9 -8 -6 0 -12 4 -15 8 -3 5
1 9 9 9 8 0 15 -4 15 -9z m47 -40 c-3 -7 -5 -2 -5 12 0 14 2 19 5 13 2 -7 2
-19 0 -25z m717 -143 c-4 -8 -11 -12 -16 -9 -6 4 -5 10 3 15 19 12 19 11 13
-6z"/>
<path d="M1186 1444 c-5 -14 -4 -15 9 -4 17 14 19 20 6 20 -5 0 -12 -7 -15
-16z"/>
<path d="M980 1333 c0 -5 27 -33 33 -33 13 0 0 29 -15 33 -10 3 -18 3 -18 0z"/>
<path d="M955 1289 c-4 -6 -5 -12 -2 -15 2 -3 7 2 10 11 7 17 1 20 -8 4z"/>
<path d="M1380 1269 c0 -5 5 -7 10 -4 6 3 10 8 10 11 0 2 -4 4 -10 4 -5 0 -10
-5 -10 -11z"/>
<path d="M919 1265 c-1 -3 -2 -18 -3 -34 -1 -24 1 -27 16 -17 19 11 32 36 23
44 -3 3 -5 0 -5 -6 0 -7 -4 -12 -10 -12 -5 0 -7 7 -4 15 4 8 1 15 -5 15 -6 0
-12 -2 -12 -5z"/>
<path d="M1502 1250 c0 -14 2 -19 5 -12 2 6 2 18 0 25 -3 6 -5 1 -5 -13z"/>
<path d="M691 1233 c-20 -17 -70 -110 -53 -99 4 2 8 -4 8 -14 0 -10 -6 -16
-12 -13 -7 2 -15 -4 -18 -14 -12 -38 15 -153 35 -153 5 0 9 -8 10 -17 0 -10 5
-3 10 15 6 21 14 30 22 26 9 -5 9 -4 1 5 -9 9 -17 10 -31 2 -15 -7 -20 -7 -20
3 0 14 45 15 66 2 12 -8 10 -2 -16 43 -2 2 -10 -2 -20 -10 -14 -12 -16 -12 -8
0 12 20 15 61 4 61 -5 0 -9 7 -9 16 0 8 5 12 11 9 7 -5 9 4 7 26 -2 24 3 40
20 56 16 17 21 30 17 44 -5 16 -4 19 5 14 9 -5 11 -4 6 3 -9 15 -10 15 -35 -5z"/>
<path d="M1400 1196 c0 -2 7 -6 15 -10 8 -3 15 -1 15 4 0 6 -7 10 -15 10 -8 0
-15 -2 -15 -4z"/>
<path d="M926 1173 c-6 -14 -5 -15 5 -6 7 7 10 15 7 18 -3 3 -9 -2 -12 -12z"/>
<path d="M1524 1115 c3 -22 13 -27 19 -11 3 8 0 17 -8 19 -7 3 -12 0 -11 -8z"/>
<path d="M697 1083 c-4 -3 -7 -13 -7 -22 1 -13 3 -13 11 2 11 19 8 33 -4 20z"/>
<path d="M757 1083 c-4 -4 -5 -21 -1 -39 4 -20 0 -43 -10 -61 -10 -20 -12 -33
-5 -40 7 -7 5 -12 -6 -17 -9 -3 -14 -2 -11 3 4 5 -3 7 -14 4 -11 -3 -20 -10
-20 -15 0 -5 5 -6 12 -2 7 5 9 2 6 -8 -4 -8 2 -19 12 -26 14 -9 19 -8 24 3 3
8 11 13 18 11 7 -1 10 -1 6 1 -5 3 -8 12 -8 21 0 12 3 13 11 5 14 -14 69 10
69 30 0 8 -4 7 -10 -3 -5 -8 -10 -11 -10 -6 0 5 -9 1 -20 -9 -11 -10 -20 -13
-20 -7 0 7 5 12 10 12 6 0 8 14 5 33 -4 23 -3 28 5 17 5 -8 10 -11 10 -6 0 6
-10 21 -22 35 -13 14 -16 20 -7 14 12 -10 19 -8 33 8 17 21 16 49 -3 49 -6 0
-15 -9 -22 -21 -8 -16 -14 -18 -22 -10 -9 9 -8 14 3 21 8 5 10 10 4 10 -6 0
-14 -3 -17 -7z"/>
<path d="M720 1046 c0 -9 5 -16 10 -16 6 0 10 4 10 9 0 6 -4 13 -10 16 -5 3
-10 -1 -10 -9z"/>
<path d="M1436 1041 c-4 -7 -5 -15 -2 -18 9 -9 19 4 14 18 -4 11 -6 11 -12 0z"/>
<path d="M1435 980 c3 -5 8 -10 11 -10 2 0 4 5 4 10 0 6 -5 10 -11 10 -5 0 -7
-4 -4 -10z"/>
<path d="M825 917 c-10 -8 -15 -19 -11 -26 6 -9 12 -7 22 6 12 16 13 16 8 1
-4 -11 4 -27 23 -44 15 -15 22 -24 14 -19 -10 5 -12 4 -7 -3 12 -20 33 -13 38
12 3 16 0 27 -9 30 -8 3 -11 10 -8 16 3 5 0 10 -8 10 -8 0 -17 7 -21 15 -7 19
-17 19 -41 2z"/>
<path d="M756 874 c7 -3 10 -15 7 -27 -4 -17 -3 -19 6 -7 9 12 11 12 17 -3 3
-9 11 -14 17 -10 5 3 7 1 4 -5 -4 -5 -15 -8 -25 -6 -14 4 -17 -2 -17 -39 0
-42 1 -44 22 -34 12 5 29 7 38 3 14 -5 15 -9 5 -21 -7 -9 -11 -17 -9 -19 2 -2
15 10 28 27 24 29 24 29 3 23 -12 -4 -22 -3 -22 2 0 5 9 12 20 15 29 7 27 47
-2 47 -15 0 -19 3 -11 8 8 5 9 13 3 22 -6 10 -10 11 -10 3 0 -10 -6 -10 -25
-1 -13 6 -23 14 -20 17 2 4 -6 7 -18 8 -12 0 -17 -1 -11 -3z m54 -82 c0 -5 -7
-9 -15 -9 -8 0 -12 4 -9 9 3 4 9 8 15 8 5 0 9 -4 9 -8z"/>
<path d="M1311 844 c0 -11 3 -14 6 -6 3 7 2 16 -1 19 -3 4 -6 -2 -5 -13z"/>
<path d="M1330 831 c0 -6 5 -13 10 -16 6 -3 10 1 10 9 0 9 -4 16 -10 16 -5 0
-10 -4 -10 -9z"/>
<path d="M885 790 c3 -5 8 -10 11 -10 2 0 4 5 4 10 0 6 -5 10 -11 10 -5 0 -7
-4 -4 -10z"/>
<path d="M951 773 c0 -4 4 -17 9 -28 8 -19 9 -19 9 2 1 12 -3 25 -9 28 -5 3
-10 3 -9 -2z"/>
<path d="M985 770 c-3 -5 -1 -10 4 -10 6 0 11 5 11 10 0 6 -2 10 -4 10 -3 0
-8 -4 -11 -10z"/>
<path d="M890 739 c0 -5 5 -7 10 -4 6 3 10 8 10 11 0 2 -4 4 -10 4 -5 0 -10
-5 -10 -11z"/>
<path d="M868 734 c-5 -4 -8 -16 -8 -27 0 -11 3 -18 6 -14 3 3 17 -6 30 -21
19 -22 23 -24 24 -9 0 9 -4 17 -10 17 -5 0 -10 7 -10 15 0 8 -4 15 -9 15 -5 0
-11 7 -13 16 -2 9 -6 12 -10 8z"/>
<path d="M1066 695 c4 -8 10 -15 15 -15 4 0 6 7 3 15 -4 8 -10 15 -15 15 -4 0
-6 -7 -3 -15z"/>
<path d="M1257 659 c4 -13 8 -18 11 -10 2 7 -1 18 -6 23 -8 8 -9 4 -5 -13z"/>
<path d="M1315 671 c-3 -5 -2 -12 3 -15 5 -3 9 1 9 9 0 17 -3 19 -12 6z"/>
<path d="M833 655 c0 -7 17 -16 38 -22 29 -8 36 -7 32 3 -9 23 -70 40 -70 19z"/>
<path d="M1023 643 c14 -14 17 -14 31 -1 13 13 11 15 -16 16 -28 1 -30 -1 -15
-15z"/>
<path d="M1201 624 c0 -11 3 -14 6 -6 3 7 2 16 -1 19 -3 4 -6 -2 -5 -13z"/>
<path d="M1105 610 c-3 -5 -1 -10 4 -10 6 0 11 5 11 10 0 6 -2 10 -4 10 -3 0
-8 -4 -11 -10z"/>
<path d="M1097 563 c-4 -3 -2 -12 4 -20 9 -10 15 -10 25 -2 8 6 14 16 14 22 0
7 -4 7 -12 -1 -15 -15 -32 -16 -23 -2 7 11 2 13 -8 3z"/>
<path d="M787 1383 c-10 -9 -9 -23 1 -23 5 0 9 7 9 15 0 17 -1 18 -10 8z"/>
</g>
</svg>
